<svg width="25" height="25" viewBox="0 0 25 25" fill="none" xmlns="http://www.w3.org/2000/svg">
<path d="M11.1979 13.5833C11.1979 12.9896 10.7083 12.5 10.1146 12.5C9.52083 12.5 9.03125 12.9896 9.03125 13.5833C9.03125 13.8707 9.14539 14.1462 9.34855 14.3494C9.55172 14.5525 9.82727 14.6667 10.1146 14.6667C10.4019 14.6667 10.6775 14.5525 10.8806 14.3494C11.0838 14.1462 11.1979 13.8707 11.1979 13.5833ZM14.6771 16.0521C14.2083 16.5208 13.2083 16.6875 12.5 16.6875C11.7917 16.6875 10.7917 16.5208 10.3229 16.0521C10.2976 16.025 10.2669 16.0033 10.2329 15.9885C10.1988 15.9738 10.1621 15.9661 10.125 15.9661C10.0879 15.9661 10.0512 15.9738 10.0171 15.9885C9.98307 16.0033 9.95242 16.025 9.92708 16.0521C9.89996 16.0774 9.87833 16.1081 9.86354 16.1421C9.84876 16.1762 9.84113 16.2129 9.84113 16.25C9.84113 16.2871 9.84876 16.3238 9.86354 16.3579C9.87833 16.3919 9.89996 16.4226 9.92708 16.4479C10.6667 17.1875 12.0833 17.25 12.5 17.25C12.9167 17.25 14.3333 17.1875 15.0729 16.4479C15.1 16.4226 15.1217 16.3919 15.1365 16.3579C15.1512 16.3238 15.1589 16.2871 15.1589 16.25C15.1589 16.2129 15.1512 16.1762 15.1365 16.1421C15.1217 16.1081 15.1 16.0774 15.0729 16.0521C14.9688 15.9479 14.7917 15.9479 14.6771 16.0521ZM14.8854 12.5C14.2917 12.5 13.8021 12.9896 13.8021 13.5833C13.8021 14.1771 14.2917 14.6667 14.8854 14.6667C15.4792 14.6667 15.9688 14.1771 15.9688 13.5833C15.9688 12.9896 15.4896 12.5 14.8854 12.5Z" fill="#07826F"/>
<path d="M12.5002 2.0835C6.75016 2.0835 2.0835 6.75016 2.0835 12.5002C2.0835 18.2502 6.75016 22.9168 12.5002 22.9168C18.2502 22.9168 22.9168 18.2502 22.9168 12.5002C22.9168 6.75016 18.2502 2.0835 12.5002 2.0835ZM18.5418 13.8856C18.5627 14.0314 18.5731 14.1877 18.5731 14.3439C18.5731 16.6772 15.8543 18.5731 12.5002 18.5731C9.146 18.5731 6.42725 16.6772 6.42725 14.3439C6.42725 14.1877 6.43766 14.0314 6.4585 13.8856C5.92725 13.646 5.56266 13.1147 5.56266 12.5002C5.56112 12.2015 5.64787 11.909 5.81203 11.6594C5.97619 11.4098 6.21043 11.2144 6.48533 11.0975C6.76023 10.9806 7.06353 10.9476 7.35713 11.0026C7.65074 11.0575 7.92156 11.198 8.13558 11.4064C9.18766 10.646 10.646 10.1668 12.2606 10.1147L13.0314 6.47933C13.0418 6.40641 13.0835 6.34391 13.146 6.31266C13.2085 6.271 13.2814 6.26058 13.3543 6.271L15.8752 6.81266C15.9607 6.63931 16.091 6.49198 16.2526 6.38597C16.4142 6.27996 16.6013 6.21912 16.7943 6.20977C16.9874 6.20042 17.1795 6.24289 17.3506 6.33278C17.5217 6.42267 17.6656 6.5567 17.7675 6.72098C17.8693 6.88526 17.9254 7.0738 17.9298 7.26704C17.9342 7.46028 17.8869 7.65118 17.7927 7.81995C17.6984 7.98872 17.5608 8.1292 17.3939 8.22683C17.2271 8.32446 17.0372 8.37567 16.8439 8.37516C16.2606 8.37516 15.7918 7.91683 15.7606 7.34391L13.5002 6.86475L12.8127 10.1147C14.4064 10.1668 15.8335 10.6564 16.8752 11.4064C17.0349 11.2539 17.2259 11.1382 17.435 11.0672C17.6441 10.9963 17.8662 10.9719 18.0857 10.9958C18.3052 11.0197 18.5168 11.0912 18.7058 11.2054C18.8948 11.3196 19.0565 11.4737 19.1797 11.657C19.3029 11.8402 19.3845 12.0481 19.419 12.2662C19.4534 12.4843 19.4397 12.7073 19.379 12.9196C19.3182 13.1319 19.2118 13.3283 19.0672 13.4952C18.9226 13.662 18.7433 13.7953 18.5418 13.8856Z" fill="#07826F"/>
</svg>
