<svg width="9" height="11" viewBox="0 0 9 11" fill="none" xmlns="http://www.w3.org/2000/svg">
<path d="M1.2298 6.92473C3.21695 5.42705 4.46457 3.24443 4.76642 0.755118L3.35781 1.14359C4.24825 3.24443 5.94361 4.83922 8.00621 5.7133V4.23607C5.5814 4.92101 4.05205 7.77835 4.89218 10.2114C5.21415 11.1468 6.52718 10.7737 6.34607 9.80252C5.85306 7.14963 3.58922 4.93634 0.953111 4.5632C0.550652 4.50698 0.143162 4.66032 0.0224238 5.09991C-0.0731603 5.45772 0.143162 5.98421 0.550652 6.04554C2.7189 6.35224 4.47966 8.0237 4.88715 10.2165L6.34104 9.80763C5.77256 8.1566 6.72337 6.19378 8.40364 5.71841C9.18341 5.49861 9.04758 4.51209 8.40364 4.24118C6.69822 3.52045 5.38017 2.08411 4.65574 0.376865C4.52494 0.0701735 4.09733 -0.0576146 3.80554 0.0241697C3.45842 0.121289 3.29241 0.422869 3.25216 0.765341C3.02075 2.66172 1.97435 4.47631 0.460099 5.61106C0.1331 5.85642 -0.0329143 6.27556 0.188438 6.65893C0.374576 6.98606 0.892743 7.1803 1.21974 6.93495L1.2298 6.92473Z" fill="#08FFD9"/>
</svg>
