<svg width="20" height="20" viewBox="0 0 20 20" fill="none" xmlns="http://www.w3.org/2000/svg">
<path d="M17.4865 10.4417C17.578 8.89106 17.1858 7.35028 16.3641 6.03213C15.5424 4.71398 14.3316 3.68348 12.8991 3.08295C11.4666 2.48242 9.88296 2.34148 8.3669 2.67961C6.85084 3.01774 5.47717 3.81825 4.43559 4.97058C3.39401 6.12291 2.73591 7.57022 2.55217 9.11262C2.36844 10.655 2.66814 12.2164 3.40988 13.5812C4.15162 14.946 5.2988 16.0467 6.69301 16.7315C8.08721 17.4164 9.65965 17.6514 11.1932 17.4042M9.99982 5.83333V10L12.4998 12.5M15.8331 13.3333L14.1665 15.8333H17.4998L15.8331 18.3333" stroke="white" stroke-linecap="round" stroke-linejoin="round"/>
</svg>
